<svg width="21" height="21" viewBox="0 0 21 21" fill="none" xmlns="http://www.w3.org/2000/svg">
<path d="M12.2502 14.1403L8.78516 10.6753" stroke="#E9ACC2" stroke-width="1.3125" stroke-miterlimit="10" stroke-linecap="round" stroke-linejoin="round"/>
<path d="M12.215 10.7102L8.75 14.1752" stroke="#E9ACC2" stroke-width="1.3125" stroke-miterlimit="10" stroke-linecap="round" stroke-linejoin="round"/>
<path d="M8.75 5.24976H12.25C14 5.24976 14 4.37476 14 3.49976C14 1.74976 13.125 1.74976 12.25 1.74976H8.75C7.875 1.74976 7 1.74976 7 3.49976C7 5.24976 7.875 5.24976 8.75 5.24976Z" stroke="#E9ACC2" stroke-width="1.3125" stroke-miterlimit="10" stroke-linecap="round" stroke-linejoin="round"/>
<path d="M14 3.51758C16.9137 3.67508 18.375 4.75133 18.375 8.75008V14.0001C18.375 17.5001 17.5 19.2501 13.125 19.2501H7.875C3.5 19.2501 2.625 17.5001 2.625 14.0001V8.75008C2.625 4.76008 4.08625 3.67508 7 3.51758" stroke="#E9ACC2" stroke-width="1.3125" stroke-miterlimit="10" stroke-linecap="round" stroke-linejoin="round"/>
</svg>
