<svg width="13" height="13" viewBox="0 0 13 13" fill="none" xmlns="http://www.w3.org/2000/svg">
<path d="M8.89758 1.69397C7.92018 1.69397 7.04538 2.16917 6.49998 2.89817C5.95458 2.16917 5.07978 1.69397 4.10238 1.69397C2.44458 1.69397 1.09998 3.04397 1.09998 4.71257C1.09998 5.35517 1.20258 5.94917 1.38078 6.49997C2.23398 9.19997 4.86378 10.8146 6.16518 11.2574C6.34878 11.3222 6.65118 11.3222 6.83478 11.2574C8.13618 10.8146 10.766 9.19997 11.6192 6.49997C11.7974 5.94917 11.9 5.35517 11.9 4.71257C11.9 3.04397 10.5554 1.69397 8.89758 1.69397Z" fill="white"/>
<path d="M6.19971 3.12281L6.49998 3.52416L6.80024 3.12281C7.27819 2.48397 8.04386 2.06897 8.89758 2.06897C10.3465 2.06897 11.525 3.24932 11.525 4.71257C11.525 5.31438 11.429 5.86948 11.2624 6.38453L11.2616 6.38698C10.8619 7.65201 10.0413 8.67522 9.15063 9.44072C8.25828 10.2076 7.31703 10.6972 6.71398 10.9024L6.71398 10.9023L6.70997 10.9037C6.67079 10.9176 6.59467 10.931 6.49998 10.931C6.40529 10.931 6.32916 10.9176 6.28998 10.9037L6.28999 10.9037L6.28597 10.9024C5.68292 10.6972 4.74168 10.2076 3.84932 9.44072C2.95862 8.67522 2.1381 7.65201 1.73835 6.38698L1.73836 6.38697L1.73757 6.38454C1.57093 5.86948 1.47498 5.31438 1.47498 4.71257C1.47498 3.24932 2.65343 2.06897 4.10238 2.06897C4.9561 2.06897 5.72176 2.48397 6.19971 3.12281Z" stroke="black" stroke-opacity="0.3" stroke-width="0.75"/>
</svg>
