<svg width="19" height="19" viewBox="0 0 19 19" fill="none" xmlns="http://www.w3.org/2000/svg">
<path d="M17.0208 4.23538C17.0208 4.95579 16.6804 5.59704 16.1579 6.00871C15.7779 6.30954 15.295 6.49163 14.7646 6.49163C13.5137 6.49163 12.5083 5.48621 12.5083 4.23538C12.5083 3.70496 12.6904 3.22996 12.9912 2.84204H12.9992C13.4029 2.31954 14.0442 1.97913 14.7646 1.97913C16.0154 1.97913 17.0208 2.98454 17.0208 4.23538Z" stroke="white" stroke-width="1.1875" stroke-linecap="round" stroke-linejoin="round"/>
<path d="M6.49166 4.23538C6.49166 5.48621 5.48624 6.49163 4.23541 6.49163C3.70499 6.49163 3.22999 6.30954 2.84207 6.00871C2.31957 5.59704 1.97916 4.95579 1.97916 4.23538C1.97916 2.98454 2.98457 1.97913 4.23541 1.97913C4.95582 1.97913 5.59707 2.31954 6.00874 2.84204C6.30957 3.22996 6.49166 3.70496 6.49166 4.23538Z" stroke="white" stroke-width="1.1875" stroke-linecap="round" stroke-linejoin="round"/>
<path d="M17.0208 14.7647C17.0208 16.0155 16.0154 17.0209 14.7646 17.0209C14.0442 17.0209 13.4029 16.6805 12.9992 16.158H12.9912C12.6904 15.778 12.5083 15.2951 12.5083 14.7647C12.5083 13.5138 13.5137 12.5084 14.7646 12.5084C15.295 12.5084 15.77 12.6905 16.1579 12.9913V12.9993C16.6804 13.403 17.0208 14.0443 17.0208 14.7647Z" stroke="white" stroke-width="1.1875" stroke-linecap="round" stroke-linejoin="round"/>
<path d="M6.49166 14.7647C6.49166 15.2951 6.30957 15.7701 6.00874 16.158C5.59707 16.6884 4.95582 17.0209 4.23541 17.0209C2.98457 17.0209 1.97916 16.0155 1.97916 14.7647C1.97916 14.0443 2.31957 13.403 2.84207 12.9993V12.9913C3.22207 12.6905 3.70499 12.5084 4.23541 12.5084C5.48624 12.5084 6.49166 13.5138 6.49166 14.7647Z" stroke="white" stroke-width="1.1875" stroke-linecap="round" stroke-linejoin="round"/>
<path d="M17.0208 9.49996C17.0208 10.7666 16.7121 11.9462 16.1579 12.9912C15.7779 12.6904 15.295 12.5083 14.7646 12.5083C13.5137 12.5083 12.5083 13.5137 12.5083 14.7645C12.5083 15.295 12.6904 15.77 12.9912 16.1579C11.9462 16.712 10.7667 17.0208 9.49999 17.0208C8.24124 17.0208 7.05374 16.712 6.00874 16.1579C6.30957 15.7779 6.49166 15.295 6.49166 14.7645C6.49166 13.5137 5.48624 12.5083 4.23541 12.5083C3.70499 12.5083 3.22999 12.6904 2.84207 12.9912C2.28791 11.9462 1.97916 10.7666 1.97916 9.49996C1.97916 8.24121 2.28791 7.05371 2.84207 6.00871C3.22999 6.30954 3.70499 6.49163 4.23541 6.49163C5.48624 6.49163 6.49166 5.48621 6.49166 4.23538C6.49166 3.70496 6.30957 3.22996 6.00874 2.84204C7.05374 2.28788 8.24124 1.97913 9.49999 1.97913C10.7667 1.97913 11.9462 2.28788 12.9912 2.84204C12.6904 3.22204 12.5083 3.70496 12.5083 4.23538C12.5083 5.48621 13.5137 6.49163 14.7646 6.49163C15.295 6.49163 15.77 6.30954 16.1579 6.00871C16.7121 7.05371 17.0208 8.24121 17.0208 9.49996Z" stroke="white" stroke-width="1.1875" stroke-linecap="round" stroke-linejoin="round"/>
</svg>
