<svg width="19" height="19" viewBox="0 0 19 19" fill="none" xmlns="http://www.w3.org/2000/svg">
<g opacity="0.5">
<path d="M17.1478 8.26503L16.372 11.5742C15.707 14.4321 14.3928 15.5879 11.9228 15.3504C11.527 15.3188 11.0995 15.2475 10.6403 15.1367L9.31031 14.82C6.00906 14.0363 4.98781 12.4054 5.76364 9.09628L6.53947 5.77919C6.69781 5.10628 6.8878 4.52044 7.1253 4.03753C8.05155 2.12169 9.62697 1.60711 12.2711 2.23253L13.5932 2.54128C16.9103 3.31711 17.9236 4.95586 17.1478 8.26503Z" stroke="white" stroke-width="1.1875" stroke-linecap="round" stroke-linejoin="round"/>
<path d="M11.9225 15.3504C11.4317 15.6829 10.8142 15.96 10.0621 16.2054L8.81128 16.6171C5.66836 17.6304 4.01378 16.7833 2.99253 13.6404L1.97919 10.5133C0.965859 7.37039 1.80503 5.70789 4.94794 4.69456L6.19878 4.28289C6.52336 4.17998 6.83211 4.09289 7.12503 4.03748C6.88753 4.52039 6.69753 5.10623 6.53919 5.77914L5.76336 9.09623C4.98753 12.4054 6.00878 14.0362 9.31003 14.82L10.64 15.1366C11.0992 15.2475 11.5267 15.3187 11.9225 15.3504Z" stroke="white" stroke-width="1.1875" stroke-linecap="round" stroke-linejoin="round"/>
</g>
</svg>
