<?xml version="1.0" encoding="UTF-8" ?>
<!DOCTYPE svg PUBLIC "-//W3C//DTD SVG 1.1//EN" "http://www.w3.org/Graphics/SVG/1.1/DTD/svg11.dtd">
<svg width="199pt" height="125pt" viewBox="0 0 199 125" version="1.1" xmlns="http://www.w3.org/2000/svg">
<g id="#ffffffff">
<path fill="#ffffff" opacity="1.00" d=" M 125.98 4.99 C 128.87 3.08 133.82 1.06 136.35 4.49 C 138.37 8.29 136.93 13.03 134.22 16.12 C 130.28 20.72 128.93 27.33 131.01 33.06 C 133.71 40.46 130.02 48.51 124.42 53.45 C 119.59 57.38 113.78 61.60 107.22 60.87 C 99.74 59.62 94.75 53.38 89.32 48.68 C 83.27 42.65 75.95 38.12 69.58 32.47 C 67.34 30.39 65.03 28.07 64.28 25.02 C 63.91 22.33 65.47 19.26 68.06 18.27 C 70.73 17.73 73.17 19.33 75.19 20.86 C 78.40 23.47 81.12 26.62 83.62 29.90 C 84.94 27.50 87.57 26.50 90.20 26.50 C 89.46 23.88 89.37 20.54 91.76 18.73 C 93.68 16.97 96.42 17.34 98.69 18.05 C 98.94 16.59 98.76 14.91 99.74 13.67 C 101.58 11.15 105.78 10.93 107.95 13.16 C 111.39 16.46 115.09 19.49 118.50 22.83 C 120.01 16.61 120.16 9.01 125.98 4.99 Z" />
<path fill="#ffffff" opacity="1.00" d=" M 1.19 77.61 C 6.07 77.63 10.94 77.60 15.81 77.64 C 15.81 79.98 15.81 82.31 15.82 84.65 C 13.39 84.64 10.97 84.64 8.54 84.64 C 8.54 86.59 8.54 88.53 8.54 90.47 C 10.83 90.47 13.12 90.47 15.41 90.48 C 15.41 92.80 15.41 95.11 15.40 97.43 C 13.11 97.43 10.83 97.44 8.54 97.43 C 8.55 102.95 8.53 108.47 8.55 113.99 C 6.10 114.00 3.65 114.00 1.20 114.00 C 1.20 101.87 1.21 89.74 1.19 77.61 Z" />
<path fill="#ffffff" opacity="1.00" d=" M 18.17 77.62 C 23.01 77.62 27.85 77.63 32.69 77.61 C 32.69 79.94 32.69 82.28 32.69 84.61 C 30.32 84.61 27.95 84.61 25.58 84.62 C 25.57 86.96 25.57 89.30 25.56 91.64 C 27.85 91.65 30.14 91.65 32.43 91.66 C 32.44 93.94 32.44 96.23 32.43 98.51 C 30.15 98.51 27.86 98.51 25.57 98.51 C 25.57 101.29 25.57 104.07 25.57 106.85 C 28.09 106.85 30.61 106.85 33.13 106.85 C 33.13 109.23 33.13 111.62 33.13 114.00 C 28.14 114.00 23.16 114.00 18.17 114.00 C 18.17 101.87 18.17 89.75 18.17 77.62 Z" />
<path fill="#ffffff" opacity="1.00" d=" M 35.58 77.62 C 38.09 77.62 40.61 77.62 43.12 77.62 C 44.17 83.36 45.44 89.06 46.34 94.83 C 46.52 89.09 46.41 83.35 46.44 77.62 C 48.80 77.62 51.16 77.62 53.53 77.62 C 53.54 89.74 53.52 101.87 53.54 113.99 C 51.15 114.00 48.77 114.00 46.39 114.00 C 45.20 108.06 44.02 102.13 42.78 96.20 C 42.72 102.13 42.77 108.07 42.75 114.00 C 40.36 114.00 37.97 114.00 35.57 114.00 C 35.58 101.87 35.57 89.75 35.58 77.62 Z" />
<path fill="#ffffff" opacity="1.00" d=" M 56.23 104.00 C 56.21 95.20 56.23 86.40 56.23 77.60 C 58.61 77.62 60.99 77.62 63.37 77.63 C 63.47 87.01 63.23 96.40 63.48 105.77 C 63.21 107.95 66.82 108.34 66.74 106.05 C 67.12 96.59 66.80 87.09 66.90 77.62 C 69.24 77.62 71.58 77.62 73.93 77.63 C 73.91 86.77 73.97 95.92 73.90 105.06 C 74.06 108.54 72.46 112.47 68.96 113.69 C 65.45 114.72 60.87 114.67 58.35 111.61 C 56.53 109.54 56.33 106.63 56.23 104.00 Z" />
<path fill="#ffffff" opacity="1.00" d=" M 79.31 77.60 C 83.41 77.63 87.51 77.63 91.62 77.61 C 92.83 89.73 94.02 101.86 95.09 114.00 C 92.79 114.00 90.49 114.00 88.18 114.00 C 88.04 112.04 87.90 110.08 87.75 108.13 C 86.25 108.12 84.75 108.11 83.26 108.09 C 83.15 110.06 83.03 112.02 82.91 113.99 C 80.53 114.00 78.14 114.00 75.76 114.00 C 76.99 101.87 78.13 89.73 79.31 77.60 M 83.86 102.28 C 84.68 102.28 86.32 102.28 87.13 102.28 C 86.66 95.93 86.03 89.60 85.60 83.25 C 84.38 89.52 84.45 95.94 83.86 102.28 Z" />
<path fill="#ffffff" opacity="1.00" d=" M 106.99 77.58 C 109.37 77.56 111.76 77.55 114.14 77.56 C 114.74 81.42 115.21 85.30 115.97 89.14 C 116.88 85.34 117.06 81.41 117.65 77.56 C 120.04 77.55 122.43 77.56 124.83 77.58 C 123.89 83.38 122.44 89.12 121.84 94.96 C 122.93 101.33 124.39 107.63 125.58 113.99 C 123.12 114.00 120.66 114.00 118.20 114.00 C 117.46 109.32 116.78 104.64 115.93 99.98 C 115.11 104.63 114.38 109.30 113.65 113.96 C 111.16 114.00 108.68 114.01 106.20 114.00 C 107.43 107.63 108.87 101.28 109.97 94.89 C 109.27 89.08 107.99 83.35 106.99 77.58 Z" />
<path fill="#ffffff" opacity="1.00" d=" M 137.64 77.63 C 140.07 77.62 142.51 77.62 144.94 77.63 C 144.94 87.67 144.95 97.72 144.94 107.76 C 147.43 107.76 149.92 107.76 152.41 107.76 C 152.41 109.84 152.41 111.92 152.41 114.00 C 147.49 114.00 142.56 114.00 137.64 114.00 C 137.64 101.87 137.63 89.75 137.64 77.63 Z" />
<path fill="#ffffff" opacity="1.00" d=" M 154.08 77.61 C 156.44 77.62 158.80 77.62 161.16 77.62 C 161.16 89.75 161.16 101.87 161.16 114.00 C 158.80 114.00 156.44 114.00 154.08 114.00 C 154.08 101.87 154.08 89.74 154.08 77.61 Z" />
<path fill="#ffffff" opacity="1.00" d=" M 164.11 77.63 C 168.97 77.61 173.82 77.62 178.68 77.63 C 178.69 79.97 178.69 82.31 178.70 84.65 C 176.28 84.64 173.86 84.64 171.44 84.64 C 171.44 86.58 171.44 88.53 171.45 90.47 C 173.73 90.47 176.02 90.47 178.31 90.48 C 178.31 92.80 178.31 95.12 178.31 97.43 C 176.02 97.43 173.73 97.43 171.45 97.44 C 171.44 102.96 171.44 108.48 171.44 114.00 C 169.00 114.00 166.55 114.00 164.11 114.00 C 164.11 101.87 164.10 89.75 164.11 77.63 Z" />
<path fill="#ffffff" opacity="1.00" d=" M 180.95 77.62 C 185.82 77.62 190.69 77.62 195.56 77.61 C 195.56 79.95 195.56 82.28 195.56 84.61 C 193.16 84.61 190.75 84.61 188.35 84.60 C 188.35 86.95 188.35 89.29 188.36 91.64 C 190.64 91.65 192.92 91.65 195.21 91.66 C 195.22 93.94 195.22 96.22 195.22 98.51 C 192.93 98.51 190.64 98.51 188.35 98.51 C 188.35 101.29 188.35 104.07 188.34 106.85 C 190.91 106.85 193.47 106.85 196.04 106.85 C 196.04 109.23 196.04 111.62 196.04 114.00 C 191.01 114.00 185.98 114.00 180.95 114.00 C 180.95 101.87 180.95 89.75 180.95 77.62 Z" />
</g>
</svg>
