<svg width="21" height="21" viewBox="0 0 21 21" fill="none" xmlns="http://www.w3.org/2000/svg">
<path d="M18.4451 7.50753V13.4925C18.4451 14.4725 17.9201 15.3825 17.0714 15.8813L11.8739 18.8825C11.0251 19.3725 9.97514 19.3725 9.11764 18.8825L3.92014 15.8813C3.07139 15.3913 2.54639 14.4813 2.54639 13.4925V7.50753C2.54639 6.52753 3.07139 5.61749 3.92014 5.11874L9.11764 2.1175C9.96639 1.6275 11.0164 1.6275 11.8739 2.1175L17.0714 5.11874C17.9201 5.61749 18.4451 6.51878 18.4451 7.50753Z" stroke="white" stroke-width="1.3125" stroke-linecap="round" stroke-linejoin="round"/>
<path d="M10.5002 9.62499C11.6261 9.62499 12.5389 8.7122 12.5389 7.58623C12.5389 6.46026 11.6261 5.54752 10.5002 5.54752C9.37421 5.54752 8.46143 6.46026 8.46143 7.58623C8.46143 8.7122 9.37421 9.62499 10.5002 9.62499Z" stroke="white" stroke-width="1.3125" stroke-linecap="round" stroke-linejoin="round"/>
<path d="M14 14.5775C14 13.0025 12.4338 11.725 10.5 11.725C8.56625 11.725 7 13.0025 7 14.5775" stroke="white" stroke-width="1.3125" stroke-linecap="round" stroke-linejoin="round"/>
</svg>
