<svg width="19" height="19" viewBox="0 0 19 19" fill="none" xmlns="http://www.w3.org/2000/svg">
<path d="M17.3931 14.5112C17.3931 14.7962 17.3297 15.0892 17.1952 15.3742C17.0606 15.6592 16.8864 15.9283 16.6568 16.1817C16.2689 16.6092 15.8414 16.9179 15.3585 17.1158C14.8835 17.3137 14.3689 17.4167 13.8147 17.4167C13.0072 17.4167 12.1443 17.2267 11.2339 16.8387C10.3235 16.4508 9.41308 15.9283 8.51058 15.2712C7.60016 14.6062 6.73725 13.87 5.91391 13.0546C5.0985 12.2312 4.36225 11.3683 3.70516 10.4658C3.056 9.56333 2.5335 8.66083 2.1535 7.76625C1.7735 6.86375 1.5835 6.00083 1.5835 5.1775C1.5835 4.63916 1.6785 4.12458 1.8685 3.64958C2.0585 3.16666 2.35933 2.72333 2.77891 2.3275C3.28558 1.82875 3.83975 1.58333 4.42558 1.58333C4.64725 1.58333 4.86891 1.63083 5.06683 1.72583C5.27266 1.82083 5.45475 1.96333 5.59725 2.16916L7.43391 4.75791C7.57641 4.95583 7.67933 5.13791 7.75058 5.31208C7.82183 5.47833 7.86141 5.64458 7.86141 5.795C7.86141 5.985 7.806 6.175 7.69516 6.35708C7.59225 6.53916 7.44183 6.72916 7.25183 6.91916L6.65016 7.54458C6.56308 7.63166 6.5235 7.73458 6.5235 7.86125C6.5235 7.92458 6.53141 7.98 6.54725 8.04333C6.571 8.10666 6.59475 8.15416 6.61058 8.20166C6.75308 8.46291 6.9985 8.80333 7.34683 9.215C7.70308 9.62666 8.08308 10.0462 8.49475 10.4658C8.92225 10.8854 9.33391 11.2733 9.7535 11.6296C10.1652 11.9779 10.5056 12.2154 10.7747 12.3579C10.8143 12.3737 10.8618 12.3975 10.9172 12.4212C10.9806 12.445 11.0439 12.4529 11.1152 12.4529C11.2497 12.4529 11.3527 12.4054 11.4397 12.3183L12.0414 11.7246C12.2393 11.5267 12.4293 11.3762 12.6114 11.2812C12.7935 11.1704 12.9756 11.115 13.1735 11.115C13.3239 11.115 13.4822 11.1467 13.6564 11.2179C13.8306 11.2892 14.0127 11.3921 14.2106 11.5267L16.831 13.3871C17.0368 13.5296 17.1793 13.6958 17.2664 13.8937C17.3456 14.0917 17.3931 14.2896 17.3931 14.5112Z" stroke="white" stroke-width="1.25" stroke-miterlimit="10"/>
</svg>
