<svg width="22" height="21" viewBox="0 0 22 21" fill="none" xmlns="http://www.w3.org/2000/svg">
<path d="M1.77344 20.3174C1.90332 20.3174 2.03662 20.2935 2.17334 20.2456C2.31006 20.2046 2.46045 20.1362 2.62451 20.0405L7.84375 17.231L13.5142 20.4097C13.8833 20.6147 14.2661 20.7173 14.6626 20.7173C15.0386 20.7173 15.3804 20.6284 15.688 20.4507L21.0508 17.4053C21.3584 17.2344 21.584 17.0259 21.7275 16.7798C21.8711 16.5269 21.9429 16.2295 21.9429 15.8877V2.07568C21.9429 1.69971 21.8403 1.40918 21.6353 1.2041C21.437 0.999023 21.1533 0.896484 20.7842 0.896484C20.6543 0.896484 20.521 0.92041 20.3843 0.968262C20.2476 1.00928 20.0938 1.07422 19.9229 1.16309L14.4883 4.18799L8.92041 0.773438C8.60596 0.582031 8.26074 0.486328 7.88477 0.486328C7.50195 0.486328 7.1499 0.582031 6.82861 0.773438L1.49658 3.80859C1.1958 3.97949 0.973633 4.19141 0.830078 4.44434C0.686523 4.69043 0.614746 4.98779 0.614746 5.33643V19.1279C0.614746 19.5107 0.713867 19.8047 0.912109 20.0098C1.11719 20.2148 1.4043 20.3174 1.77344 20.3174ZM7.17725 15.6006L2.55273 18.1436C2.48438 18.1777 2.43311 18.1948 2.39893 18.1948C2.31006 18.1948 2.26562 18.1401 2.26562 18.0308V5.73633C2.26562 5.61328 2.28955 5.50732 2.3374 5.41846C2.39209 5.32275 2.48096 5.24072 2.604 5.17236L6.80811 2.71143C6.87646 2.67725 6.93799 2.64307 6.99268 2.60889C7.0542 2.57471 7.11572 2.54053 7.17725 2.50635V15.6006ZM8.82812 15.7646V2.72168C8.88281 2.74902 8.9375 2.77979 8.99219 2.81396C9.04688 2.84131 9.10156 2.87207 9.15625 2.90625L13.7295 5.69531V18.5127C13.6543 18.4717 13.5791 18.4307 13.5039 18.3896C13.4287 18.3555 13.3535 18.3179 13.2783 18.2769L8.82812 15.7646ZM15.3804 18.6973V5.59277L20.0049 3.07031C20.0732 3.03613 20.1211 3.01904 20.1484 3.01904C20.1963 3.01904 20.2305 3.03271 20.251 3.06006C20.2783 3.0874 20.292 3.12842 20.292 3.18311V15.4775C20.292 15.6006 20.2646 15.71 20.21 15.8057C20.1621 15.9014 20.0767 15.9834 19.9536 16.0518L15.8418 18.4409C15.7666 18.4888 15.688 18.5332 15.606 18.5742C15.5308 18.6152 15.4556 18.6562 15.3804 18.6973Z" fill="#FD65AF"/>
</svg>
